<svg width="107" height="107" viewBox="0 0 107 107" fill="none" xmlns="http://www.w3.org/2000/svg"><rect width="107" height="107" fill="#E8E8E8"/><g clip-path="url(#clip0_1709_4721)"><path d="M31.7333 52.9C32.1 53.0833 32.2833 53.0833 32.65 53.0833C33.0167 53.0833 33.3833 52.9 33.5667 52.9L46.4 45.3833C46.95 45.0167 47.3167 44.4667 47.3167 43.7333C47.3167 43 46.95 42.45 46.4 42.0833L41.8167 39.3333L45.6667 32.3667C46.4 31.0833 47.5 29.9833 48.7833 29.25C52.45 27.2333 57.0333 28.7 59.05 32.3667C59.6 33.2833 60.7 33.4667 61.6167 32.9167H61.8C62.5333 32.3667 62.7167 31.2667 62.35 30.5333C61.25 28.7 59.7833 27.05 57.95 26.1333C52.45 23.2 45.6667 25.0333 42.7333 30.5333L37.6 39.15C37.05 40.0667 37.4167 41.1667 38.15 41.7167L41.8167 43.9167L34.4833 48.3167V36.0333C34.4833 34.9333 33.75 34.2 32.65 34.2C31.7333 34.3833 31 35.1167 31 36.2167V51.4333C31 51.9833 31.3667 52.5333 31.7333 52.9Z" fill="#D3D3D3"/><path d="M78.8498 59.5L72.4332 48.1333C72.2498 47.7667 71.6998 47.4 71.3332 47.2167C70.7832 47.0333 70.4165 47.2167 69.8665 47.4L65.8332 49.7833V41.1667L75.9165 47.2167C76.0998 47.2167 76.0998 47.4 76.2832 47.4C77.1998 47.7667 78.2998 47.4 78.6665 46.4833C79.0332 45.5667 78.6665 44.4667 77.7498 44.1L64.9165 36.4C64.3665 36.0333 63.6332 36.0333 63.0832 36.4C62.3498 36.5833 62.1665 37.1333 62.1665 37.8667V53.0833C62.1665 53.8167 62.3498 54.55 62.8998 54.9167C63.4498 55.2833 64.1832 55.2833 64.7332 54.9167L70.0498 51.8L75.5498 61.5167C76.8332 63.9 76.8332 66.65 75.5498 69.0333C74.4498 71.2333 72.0665 72.5167 69.6832 72.5167H68.0332C67.1165 72.5167 65.8332 73.25 65.8332 74.35C66.0165 75.45 66.9332 76.1833 68.0332 76.1833H69.6832C73.5332 76.1833 77.0165 74.1667 78.8498 70.8667C80.8665 67.2 80.8665 62.9833 78.8498 59.5Z" fill="#D3D3D3"/><path d="M61.0667 72.7002L48.2334 65.0002C47.6834 64.6335 46.95 64.6335 46.4 65.0002C45.85 65.3668 45.6667 65.9168 45.6667 66.6502V72.7002H36.6834C33.9334 72.5168 31.3667 71.0502 30.0834 68.4835C28.6167 65.9168 28.6167 62.6168 30.0834 60.0502C30.6334 59.1335 30.2667 58.0335 29.35 57.4835C28.4334 56.9335 27.3334 57.3002 26.7834 58.2168C24.5834 62.0668 24.7667 66.6502 26.9667 70.3168C28.9834 73.8002 32.8334 76.0002 36.8667 76.0002H47.5C48.6 76.0002 49.3334 75.2668 49.3334 74.1668V69.7668L56.6667 74.1668L46.4 80.2168C45.85 80.5835 45.4834 81.1335 45.4834 81.8668C45.4834 82.9669 46.4 83.7002 47.3167 83.7002C47.6834 83.7002 47.8667 83.5168 48.2334 83.3335L61.0667 75.6335C61.4334 75.4502 61.6167 75.2668 61.8 74.9002C62.35 74.1668 61.9834 73.0668 61.0667 72.7002Z" fill="#D3D3D3"/></g><defs><clipPath id="clip0_1709_4721"><rect width="66" height="66" fill="white" transform="translate(20 21)"/></clipPath></defs></svg>
